<mxfile host="app.diagrams.net" modified="2021-04-05T15:23:29.115Z" agent="5.0 (Windows NT 10.0; Win64; x64) AppleWebKit/537.36 (KHTML, like Gecko) Chrome/89.0.4389.105 Safari/537.36" etag="mQs-9gvAmO_yJ7JeG52E" version="14.5.7" type="github">
  <diagram name="Page-1" id="16e2658f-23c8-b752-8be9-c03fbebb8bbe">
    <mxGraphModel dx="782" dy="511" grid="1" gridSize="10" guides="1" tooltips="1" connect="1" arrows="1" fold="1" page="1" pageScale="1" pageWidth="1100" pageHeight="850" background="#ffffff" math="0" shadow="0">
      <root>
        <mxCell id="0" />
        <mxCell id="1" parent="0" />
        <mxCell id="6d250d948d6a1778-8" style="edgeStyle=orthogonalEdgeStyle;rounded=0;html=1;entryX=1;entryY=0.5;entryPerimeter=0;labelBackgroundColor=none;startArrow=none;startFill=0;startSize=5;endArrow=none;endFill=0;endSize=5;jettySize=auto;orthogonalLoop=1;strokeWidth=1;fontFamily=Verdana;fontSize=12" parent="1" edge="1">
          <mxGeometry relative="1" as="geometry">
            <Array as="points">
              <mxPoint x="230" y="210" />
              <mxPoint x="230" y="120" />
              <mxPoint x="640" y="120" />
            </Array>
            <mxPoint x="240" y="210" as="sourcePoint" />
            <mxPoint x="640" y="160" as="targetPoint" />
          </mxGeometry>
        </mxCell>
        <mxCell id="6d250d948d6a1778-2" value="" style="verticalLabelPosition=bottom;shadow=0;dashed=0;align=center;html=1;verticalAlign=top;strokeWidth=1;shape=mxgraph.electrical.resistors.resistor_1;rounded=1;comic=0;labelBackgroundColor=none;fontFamily=Verdana;fontSize=12;rotation=-90;" parent="1" vertex="1">
          <mxGeometry x="369.6" y="202.23" width="80" height="15.55" as="geometry" />
        </mxCell>
        <mxCell id="6d250d948d6a1778-9" style="edgeStyle=orthogonalEdgeStyle;rounded=0;html=1;labelBackgroundColor=none;startArrow=none;startFill=0;startSize=5;endArrow=none;endFill=0;endSize=5;jettySize=auto;orthogonalLoop=1;strokeWidth=1;fontFamily=Verdana;fontSize=12" parent="1" edge="1">
          <mxGeometry relative="1" as="geometry">
            <mxPoint x="640" y="160" as="sourcePoint" />
            <mxPoint x="640" y="430" as="targetPoint" />
          </mxGeometry>
        </mxCell>
        <mxCell id="6d250d948d6a1778-13" style="edgeStyle=orthogonalEdgeStyle;rounded=0;html=1;exitX=0;exitY=0.5;exitPerimeter=0;entryX=0;entryY=0.5;entryPerimeter=0;labelBackgroundColor=none;startArrow=none;startFill=0;startSize=5;endArrow=none;endFill=0;endSize=5;jettySize=auto;orthogonalLoop=1;strokeWidth=1;fontFamily=Verdana;fontSize=12" parent="1" edge="1">
          <mxGeometry relative="1" as="geometry">
            <Array as="points">
              <mxPoint x="400" y="470" />
              <mxPoint x="230" y="470" />
            </Array>
            <mxPoint x="400" y="430" as="sourcePoint" />
            <mxPoint x="230" y="370" as="targetPoint" />
          </mxGeometry>
        </mxCell>
        <mxCell id="6d250d948d6a1778-14" style="edgeStyle=orthogonalEdgeStyle;rounded=0;html=1;exitX=0;exitY=0.5;exitPerimeter=0;entryX=0;entryY=0.5;entryPerimeter=0;labelBackgroundColor=none;startArrow=none;startFill=0;startSize=5;endArrow=none;endFill=0;endSize=5;jettySize=auto;orthogonalLoop=1;strokeWidth=1;fontFamily=Verdana;fontSize=12" parent="1" edge="1">
          <mxGeometry relative="1" as="geometry">
            <Array as="points">
              <mxPoint x="640" y="470" />
              <mxPoint x="230" y="470" />
            </Array>
            <mxPoint x="640" y="430" as="sourcePoint" />
            <mxPoint x="230" y="370" as="targetPoint" />
          </mxGeometry>
        </mxCell>
        <mxCell id="gsJpeJofpkmzajCSOwDN-2" value="" style="shape=ext;double=1;whiteSpace=wrap;html=1;aspect=fixed;" parent="1" vertex="1">
          <mxGeometry x="477.5" y="283.93" width="75" height="75" as="geometry" />
        </mxCell>
        <mxCell id="gsJpeJofpkmzajCSOwDN-12" value="" style="endArrow=none;html=1;" parent="1" edge="1">
          <mxGeometry width="50" height="50" relative="1" as="geometry">
            <mxPoint x="230" y="370" as="sourcePoint" />
            <mxPoint x="230" y="210" as="targetPoint" />
          </mxGeometry>
        </mxCell>
        <mxCell id="gsJpeJofpkmzajCSOwDN-1" value="" style="pointerEvents=1;verticalLabelPosition=bottom;shadow=0;dashed=0;align=center;html=1;verticalAlign=top;shape=mxgraph.electrical.miscellaneous.illuminating_bulb;fillColor=#1ba1e2;strokeColor=#006EAF;fontColor=#ffffff;" parent="1" vertex="1">
          <mxGeometry x="419.6" y="230" width="30" height="30" as="geometry" />
        </mxCell>
        <mxCell id="gsJpeJofpkmzajCSOwDN-19" value="" style="pointerEvents=1;verticalLabelPosition=bottom;shadow=0;dashed=0;align=center;html=1;verticalAlign=top;shape=mxgraph.electrical.miscellaneous.fuse_3;rotation=-90;" parent="1" vertex="1">
          <mxGeometry x="512.5" y="315.18" width="100" height="9.64" as="geometry" />
        </mxCell>
        <mxCell id="gsJpeJofpkmzajCSOwDN-20" value="" style="pointerEvents=1;verticalLabelPosition=bottom;shadow=0;dashed=0;align=center;html=1;verticalAlign=top;shape=mxgraph.electrical.miscellaneous.fuse_3;rotation=0;direction=south;" parent="1" vertex="1">
          <mxGeometry x="464" y="270" width="10" height="100" as="geometry" />
        </mxCell>
        <mxCell id="gsJpeJofpkmzajCSOwDN-23" value="" style="shape=cylinder3;whiteSpace=wrap;html=1;boundedLbl=1;backgroundOutline=1;size=15;" parent="1" vertex="1">
          <mxGeometry x="444" y="150" width="16" height="40" as="geometry" />
        </mxCell>
        <mxCell id="gsJpeJofpkmzajCSOwDN-25" value="" style="shape=cylinder3;whiteSpace=wrap;html=1;boundedLbl=1;backgroundOutline=1;size=15;" parent="1" vertex="1">
          <mxGeometry x="477.13" y="150" width="16" height="40" as="geometry" />
        </mxCell>
        <mxCell id="gsJpeJofpkmzajCSOwDN-26" value="" style="shape=cube;whiteSpace=wrap;html=1;boundedLbl=1;backgroundOutline=1;darkOpacity=0.05;darkOpacity2=0.1;size=3;" parent="1" vertex="1">
          <mxGeometry x="444" y="192" width="30" height="27.5" as="geometry" />
        </mxCell>
        <mxCell id="gsJpeJofpkmzajCSOwDN-28" value="" style="shape=cube;whiteSpace=wrap;html=1;boundedLbl=1;backgroundOutline=1;darkOpacity=0.05;darkOpacity2=0.1;size=3;" parent="1" vertex="1">
          <mxGeometry x="482.5" y="192.5" width="30" height="27.5" as="geometry" />
        </mxCell>
        <mxCell id="gsJpeJofpkmzajCSOwDN-29" value="" style="shape=cube;whiteSpace=wrap;html=1;boundedLbl=1;backgroundOutline=1;darkOpacity=0.05;darkOpacity2=0.1;size=3;" parent="1" vertex="1">
          <mxGeometry x="520" y="193.75" width="30" height="27.5" as="geometry" />
        </mxCell>
        <mxCell id="gsJpeJofpkmzajCSOwDN-30" value="" style="shape=cube;whiteSpace=wrap;html=1;boundedLbl=1;backgroundOutline=1;darkOpacity=0.05;darkOpacity2=0.1;size=3;" parent="1" vertex="1">
          <mxGeometry x="560" y="193.75" width="30" height="27.5" as="geometry" />
        </mxCell>
        <mxCell id="gsJpeJofpkmzajCSOwDN-37" value="" style="shape=cylinder3;whiteSpace=wrap;html=1;boundedLbl=1;backgroundOutline=1;size=9.33331298828125;" parent="1" vertex="1">
          <mxGeometry x="490" y="210" width="10" height="40" as="geometry" />
        </mxCell>
        <mxCell id="gsJpeJofpkmzajCSOwDN-40" value="" style="shape=cylinder3;whiteSpace=wrap;html=1;boundedLbl=1;backgroundOutline=1;size=10;" parent="1" vertex="1">
          <mxGeometry x="510" y="210" width="10" height="40" as="geometry" />
        </mxCell>
        <mxCell id="gsJpeJofpkmzajCSOwDN-44" value="" style="shape=cylinder3;whiteSpace=wrap;html=1;boundedLbl=1;backgroundOutline=1;size=10;" parent="1" vertex="1">
          <mxGeometry x="530" y="210" width="10" height="40" as="geometry" />
        </mxCell>
        <mxCell id="gsJpeJofpkmzajCSOwDN-45" value="" style="shape=cylinder3;whiteSpace=wrap;html=1;boundedLbl=1;backgroundOutline=1;size=10;" parent="1" vertex="1">
          <mxGeometry x="552.5" y="210" width="10" height="40" as="geometry" />
        </mxCell>
        <mxCell id="gsJpeJofpkmzajCSOwDN-5" value="" style="pointerEvents=1;verticalLabelPosition=bottom;shadow=0;dashed=0;align=center;html=1;verticalAlign=top;shape=mxgraph.electrical.inductors.inductor_1;rotation=90;gradientColor=#b3b3b3;fillColor=#f5f5f5;strokeColor=#666666;" parent="1" vertex="1">
          <mxGeometry x="294.27" y="263.63" width="176.18" height="15.91" as="geometry" />
        </mxCell>
        <mxCell id="gsJpeJofpkmzajCSOwDN-48" value="" style="rounded=1;whiteSpace=wrap;html=1;" parent="1" vertex="1">
          <mxGeometry x="291.6" y="330" width="78.4" height="60" as="geometry" />
        </mxCell>
        <mxCell id="gsJpeJofpkmzajCSOwDN-49" value="" style="rhombus;whiteSpace=wrap;html=1;strokeWidth=2;fillWeight=-1;hachureGap=8;fillStyle=cross-hatch;fillColor=#006600;sketch=1;rotation=45;" parent="1" vertex="1">
          <mxGeometry x="470.81" y="276.42999999999995" width="88.39" height="90" as="geometry" />
        </mxCell>
        <mxCell id="gsJpeJofpkmzajCSOwDN-50" value="" style="rounded=1;whiteSpace=wrap;html=1;strokeWidth=2;fillWeight=4;hachureGap=8;hachureAngle=45;fillColor=#1ba1e2;sketch=1;" parent="1" vertex="1">
          <mxGeometry x="297.94" y="335.63" width="65.73" height="48.75" as="geometry" />
        </mxCell>
        <mxCell id="YIQT-2hCV9qIso7VAItd-1" value="SATA0" style="rounded=1;whiteSpace=wrap;html=1;fillColor=#647687;strokeColor=#314354;fontColor=#ffffff;" parent="1" vertex="1">
          <mxGeometry x="253.6" y="450" width="38" height="20" as="geometry" />
        </mxCell>
        <mxCell id="YIQT-2hCV9qIso7VAItd-4" value="SATA2" style="rounded=1;whiteSpace=wrap;html=1;fillColor=#647687;strokeColor=#314354;fontColor=#ffffff;" parent="1" vertex="1">
          <mxGeometry x="300" y="450" width="38" height="20" as="geometry" />
        </mxCell>
        <mxCell id="YIQT-2hCV9qIso7VAItd-8" style="edgeStyle=orthogonalEdgeStyle;rounded=0;orthogonalLoop=1;jettySize=auto;html=1;exitX=0;exitY=0;exitDx=0;exitDy=0;entryX=0.5;entryY=1;entryDx=0;entryDy=0;" parent="1" target="YIQT-2hCV9qIso7VAItd-1" edge="1">
          <mxGeometry relative="1" as="geometry">
            <mxPoint x="276.27" y="490" as="targetPoint" />
            <mxPoint x="294.27" y="500" as="sourcePoint" />
          </mxGeometry>
        </mxCell>
        <mxCell id="YIQT-2hCV9qIso7VAItd-9" value="HDD" style="shape=process;whiteSpace=wrap;html=1;backgroundOutline=1;fillColor=#fa6800;strokeColor=#C73500;fontColor=#ffffff;" parent="1" vertex="1">
          <mxGeometry x="290" y="500" width="149" height="60" as="geometry" />
        </mxCell>
        <mxCell id="YIQT-2hCV9qIso7VAItd-10" value="CPU" style="text;html=1;align=center;verticalAlign=middle;resizable=0;points=[];autosize=1;" parent="1" vertex="1">
          <mxGeometry x="493.13" y="358.93" width="40" height="20" as="geometry" />
        </mxCell>
        <mxCell id="YIQT-2hCV9qIso7VAItd-12" value="GPU" style="text;html=1;align=center;verticalAlign=middle;resizable=0;points=[];autosize=1;" parent="1" vertex="1">
          <mxGeometry x="338" y="235" width="40" height="20" as="geometry" />
        </mxCell>
        <mxCell id="YIQT-2hCV9qIso7VAItd-13" value="" style="shape=process;whiteSpace=wrap;html=1;backgroundOutline=1;" parent="1" vertex="1">
          <mxGeometry x="402" y="264.54" width="18" height="15" as="geometry" />
        </mxCell>
        <mxCell id="YIQT-2hCV9qIso7VAItd-15" value="M_BIOS" style="text;html=1;align=center;verticalAlign=middle;resizable=0;points=[];autosize=1;" parent="1" vertex="1">
          <mxGeometry x="389.6" y="279.54" width="60" height="20" as="geometry" />
        </mxCell>
        <mxCell id="YIQT-2hCV9qIso7VAItd-16" value="BAT" style="text;html=1;align=center;verticalAlign=middle;resizable=0;points=[];autosize=1;" parent="1" vertex="1">
          <mxGeometry x="439" y="243.63" width="40" height="20" as="geometry" />
        </mxCell>
        <mxCell id="YIQT-2hCV9qIso7VAItd-19" value="" style="shape=link;html=1;fillColor=#d80073;strokeColor=#A50040;" parent="1" edge="1">
          <mxGeometry width="100" relative="1" as="geometry">
            <mxPoint x="430" y="395" as="sourcePoint" />
            <mxPoint x="609.5" y="394.5" as="targetPoint" />
          </mxGeometry>
        </mxCell>
        <mxCell id="YIQT-2hCV9qIso7VAItd-20" value="" style="shape=link;html=1;fillColor=#d80073;strokeColor=#A50040;" parent="1" edge="1">
          <mxGeometry width="100" relative="1" as="geometry">
            <mxPoint x="430" y="404.5" as="sourcePoint" />
            <mxPoint x="610" y="404.5" as="targetPoint" />
          </mxGeometry>
        </mxCell>
        <mxCell id="YIQT-2hCV9qIso7VAItd-26" value="" style="shape=xor;whiteSpace=wrap;html=1;" parent="1" vertex="1">
          <mxGeometry x="610" y="390" width="10" height="10" as="geometry" />
        </mxCell>
        <mxCell id="YIQT-2hCV9qIso7VAItd-27" value="" style="shape=xor;whiteSpace=wrap;html=1;rotation=-180;" parent="1" vertex="1">
          <mxGeometry x="420" y="390" width="10" height="10" as="geometry" />
        </mxCell>
        <mxCell id="YIQT-2hCV9qIso7VAItd-30" value="" style="shape=xor;whiteSpace=wrap;html=1;rotation=-180;" parent="1" vertex="1">
          <mxGeometry x="419.6" y="400" width="10" height="10" as="geometry" />
        </mxCell>
        <mxCell id="YIQT-2hCV9qIso7VAItd-31" value="" style="shape=xor;whiteSpace=wrap;html=1;" parent="1" vertex="1">
          <mxGeometry x="610" y="400" width="10" height="10" as="geometry" />
        </mxCell>
        <mxCell id="YIQT-2hCV9qIso7VAItd-32" value="RAM" style="text;html=1;align=center;verticalAlign=middle;resizable=0;points=[];autosize=1;" parent="1" vertex="1">
          <mxGeometry x="490" y="405" width="40" height="20" as="geometry" />
        </mxCell>
        <mxCell id="YIQT-2hCV9qIso7VAItd-33" value="SATA1" style="text;html=1;align=center;verticalAlign=middle;resizable=0;points=[];autosize=1;" parent="1" vertex="1">
          <mxGeometry x="245" y="430" width="50" height="20" as="geometry" />
        </mxCell>
        <mxCell id="YIQT-2hCV9qIso7VAItd-34" value="SATA3" style="text;html=1;align=center;verticalAlign=middle;resizable=0;points=[];autosize=1;" parent="1" vertex="1">
          <mxGeometry x="295" y="430" width="50" height="20" as="geometry" />
        </mxCell>
        <mxCell id="YIQT-2hCV9qIso7VAItd-35" value="" style="endArrow=none;html=1;exitX=0;exitY=0;exitDx=22.72;exitDy=0;exitPerimeter=0;" parent="1" source="YIQT-2hCV9qIso7VAItd-49" edge="1">
          <mxGeometry width="50" height="50" relative="1" as="geometry">
            <mxPoint x="410" y="140" as="sourcePoint" />
            <mxPoint x="620" y="140" as="targetPoint" />
          </mxGeometry>
        </mxCell>
        <mxCell id="YIQT-2hCV9qIso7VAItd-37" value="" style="endArrow=none;html=1;" parent="1" edge="1">
          <mxGeometry width="50" height="50" relative="1" as="geometry">
            <mxPoint x="620" y="140" as="sourcePoint" />
            <mxPoint x="620" y="120" as="targetPoint" />
          </mxGeometry>
        </mxCell>
        <mxCell id="YIQT-2hCV9qIso7VAItd-38" value="" style="endArrow=none;html=1;" parent="1" edge="1">
          <mxGeometry width="50" height="50" relative="1" as="geometry">
            <mxPoint x="410" y="140" as="sourcePoint" />
            <mxPoint x="410" y="120" as="targetPoint" />
          </mxGeometry>
        </mxCell>
        <mxCell id="YIQT-2hCV9qIso7VAItd-39" value="" style="rounded=0;whiteSpace=wrap;html=1;rotation=90;" parent="1" vertex="1">
          <mxGeometry x="414.7" y="121.31" width="24.87" height="16.25" as="geometry" />
        </mxCell>
        <mxCell id="YIQT-2hCV9qIso7VAItd-42" value="" style="rounded=1;whiteSpace=wrap;html=1;rotation=-90;" parent="1" vertex="1">
          <mxGeometry x="436.76" y="121.31" width="34.05" height="16.25" as="geometry" />
        </mxCell>
        <mxCell id="YIQT-2hCV9qIso7VAItd-44" value="" style="shape=delay;whiteSpace=wrap;html=1;rotation=90;" parent="1" vertex="1">
          <mxGeometry x="466.13" y="117.56" width="27" height="20" as="geometry" />
        </mxCell>
        <mxCell id="YIQT-2hCV9qIso7VAItd-51" value="" style="shape=delay;whiteSpace=wrap;html=1;direction=south;" parent="1" vertex="1">
          <mxGeometry x="530" y="114.56" width="5" height="26" as="geometry" />
        </mxCell>
        <mxCell id="YIQT-2hCV9qIso7VAItd-53" value="" style="shape=delay;whiteSpace=wrap;html=1;direction=south;" parent="1" vertex="1">
          <mxGeometry x="552.5" y="114.56" width="5" height="26" as="geometry" />
        </mxCell>
        <mxCell id="YIQT-2hCV9qIso7VAItd-56" value="" style="whiteSpace=wrap;html=1;aspect=fixed;" parent="1" vertex="1">
          <mxGeometry x="535" y="120" width="17.56" height="17.56" as="geometry" />
        </mxCell>
        <mxCell id="YIQT-2hCV9qIso7VAItd-49" value="" style="shape=display;whiteSpace=wrap;html=1;rotation=90;size=0.5;" parent="1" vertex="1">
          <mxGeometry x="500" y="125.65" width="26.5" height="7.56" as="geometry" />
        </mxCell>
        <mxCell id="YIQT-2hCV9qIso7VAItd-69" value="" style="endArrow=none;html=1;entryX=0.899;entryY=1;entryDx=0;entryDy=0;entryPerimeter=0;" parent="1" target="YIQT-2hCV9qIso7VAItd-49" edge="1">
          <mxGeometry width="50" height="50" relative="1" as="geometry">
            <mxPoint x="410" y="140" as="sourcePoint" />
            <mxPoint x="620" y="140" as="targetPoint" />
          </mxGeometry>
        </mxCell>
        <mxCell id="YIQT-2hCV9qIso7VAItd-70" value="" style="rounded=0;whiteSpace=wrap;html=1;rotation=90;" parent="1" vertex="1">
          <mxGeometry x="571.13" y="121.31" width="30" height="19.25" as="geometry" />
        </mxCell>
      </root>
    </mxGraphModel>
  </diagram>
</mxfile>
